<svg width="28" height="23" viewBox="0 0 38 33" fill="none" xmlns="http://www.w3.org/2000/svg">
<path d="M0 2.75C0 1.22891 1.21295 0 2.71429 0H35.2857C36.7871 0 38 1.22891 38 2.75C38 4.27109 36.7871 5.5 35.2857 5.5H2.71429C1.21295 5.5 0 4.27109 0 2.75ZM0 16.5C0 14.9789 1.21295 13.75 2.71429 13.75H35.2857C36.7871 13.75 38 14.9789 38 16.5C38 18.0211 36.7871 19.25 35.2857 19.25H2.71429C1.21295 19.25 0 18.0211 0 16.5ZM38 30.25C38 31.7711 36.7871 33 35.2857 33H2.71429C1.21295 33 0 31.7711 0 30.25C0 28.7289 1.21295 27.5 2.71429 27.5H35.2857C36.7871 27.5 38 28.7289 38 30.25Z" fill="#3A3A3A"/>
</svg>
