<svg width="123" height="54" viewBox="0 0 123 54" fill="none" xmlns="http://www.w3.org/2000/svg">
<path d="M13.06 7.364V20H9.982V14.798H5.194V20H2.116V7.364H5.194V12.314H9.982V7.364H13.06ZM24.75 14.816C24.75 15.104 24.732 15.404 24.696 15.716H17.73C17.778 16.34 17.976 16.82 18.324 17.156C18.684 17.48 19.122 17.642 19.638 17.642C20.406 17.642 20.94 17.318 21.24 16.67H24.516C24.348 17.33 24.042 17.924 23.598 18.452C23.166 18.98 22.62 19.394 21.96 19.694C21.3 19.994 20.562 20.144 19.746 20.144C18.762 20.144 17.886 19.934 17.118 19.514C16.35 19.094 15.75 18.494 15.318 17.714C14.886 16.934 14.67 16.022 14.67 14.978C14.67 13.934 14.88 13.022 15.3 12.242C15.732 11.462 16.332 10.862 17.1 10.442C17.868 10.022 18.75 9.812 19.746 9.812C20.718 9.812 21.582 10.016 22.338 10.424C23.094 10.832 23.682 11.414 24.102 12.17C24.534 12.926 24.75 13.808 24.75 14.816ZM21.6 14.006C21.6 13.478 21.42 13.058 21.06 12.746C20.7 12.434 20.25 12.278 19.71 12.278C19.194 12.278 18.756 12.428 18.396 12.728C18.048 13.028 17.832 13.454 17.748 14.006H21.6ZM29.4518 11.63C29.8118 11.078 30.2618 10.646 30.8018 10.334C31.3418 10.01 31.9418 9.848 32.6018 9.848V13.106H31.7558C30.9878 13.106 30.4118 13.274 30.0278 13.61C29.6438 13.934 29.4518 14.51 29.4518 15.338V20H26.3738V9.956H29.4518V11.63ZM38.645 20.144C37.661 20.144 36.773 19.934 35.981 19.514C35.201 19.094 34.583 18.494 34.127 17.714C33.683 16.934 33.461 16.022 33.461 14.978C33.461 13.946 33.689 13.04 34.145 12.26C34.601 11.468 35.225 10.862 36.017 10.442C36.809 10.022 37.697 9.812 38.681 9.812C39.665 9.812 40.553 10.022 41.345 10.442C42.137 10.862 42.761 11.468 43.217 12.26C43.673 13.04 43.901 13.946 43.901 14.978C43.901 16.01 43.667 16.922 43.199 17.714C42.743 18.494 42.113 19.094 41.309 19.514C40.517 19.934 39.629 20.144 38.645 20.144ZM38.645 17.48C39.233 17.48 39.731 17.264 40.139 16.832C40.559 16.4 40.769 15.782 40.769 14.978C40.769 14.174 40.565 13.556 40.157 13.124C39.761 12.692 39.269 12.476 38.681 12.476C38.081 12.476 37.583 12.692 37.187 13.124C36.791 13.544 36.593 14.162 36.593 14.978C36.593 15.782 36.785 16.4 37.169 16.832C37.565 17.264 38.057 17.48 38.645 17.48ZM48.612 6.68V20H45.534V6.68H48.612ZM55.4146 20.144C54.4306 20.144 53.5426 19.934 52.7506 19.514C51.9706 19.094 51.3526 18.494 50.8966 17.714C50.4526 16.934 50.2306 16.022 50.2306 14.978C50.2306 13.946 50.4586 13.04 50.9146 12.26C51.3706 11.468 51.9946 10.862 52.7866 10.442C53.5786 10.022 54.4666 9.812 55.4506 9.812C56.4346 9.812 57.3226 10.022 58.1146 10.442C58.9066 10.862 59.5306 11.468 59.9866 12.26C60.4426 13.04 60.6706 13.946 60.6706 14.978C60.6706 16.01 60.4366 16.922 59.9686 17.714C59.5126 18.494 58.8826 19.094 58.0786 19.514C57.2866 19.934 56.3986 20.144 55.4146 20.144ZM55.4146 17.48C56.0026 17.48 56.5006 17.264 56.9086 16.832C57.3286 16.4 57.5386 15.782 57.5386 14.978C57.5386 14.174 57.3346 13.556 56.9266 13.124C56.5306 12.692 56.0386 12.476 55.4506 12.476C54.8506 12.476 54.3526 12.692 53.9566 13.124C53.5606 13.544 53.3626 14.162 53.3626 14.978C53.3626 15.782 53.5546 16.4 53.9386 16.832C54.3346 17.264 54.8266 17.48 55.4146 17.48Z" fill="#3A3A3A"/>
<path d="M17.154 34.454L13.518 47H11.682L8.766 36.902L5.742 47L3.924 47.018L0.414 34.454H2.16L4.896 45.092L7.92 34.454H9.756L12.636 45.056L15.39 34.454H17.154ZM27.9465 41.69C27.9465 42.002 27.9285 42.332 27.8925 42.68H20.0085C20.0685 43.652 20.3985 44.414 20.9985 44.966C21.6105 45.506 22.3485 45.776 23.2125 45.776C23.9205 45.776 24.5085 45.614 24.9765 45.29C25.4565 44.954 25.7925 44.51 25.9845 43.958H27.7485C27.4845 44.906 26.9565 45.68 26.1645 46.28C25.3725 46.868 24.3885 47.162 23.2125 47.162C22.2765 47.162 21.4365 46.952 20.6925 46.532C19.9605 46.112 19.3845 45.518 18.9645 44.75C18.5445 43.97 18.3345 43.07 18.3345 42.05C18.3345 41.03 18.5385 40.136 18.9465 39.368C19.3545 38.6 19.9245 38.012 20.6565 37.604C21.4005 37.184 22.2525 36.974 23.2125 36.974C24.1485 36.974 24.9765 37.178 25.6965 37.586C26.4165 37.994 26.9685 38.558 27.3525 39.278C27.7485 39.986 27.9465 40.79 27.9465 41.69ZM26.2545 41.348C26.2545 40.724 26.1165 40.19 25.8405 39.746C25.5645 39.29 25.1865 38.948 24.7065 38.72C24.2385 38.48 23.7165 38.36 23.1405 38.36C22.3125 38.36 21.6045 38.624 21.0165 39.152C20.4405 39.68 20.1105 40.412 20.0265 41.348H26.2545ZM29.4967 42.032C29.4967 41.024 29.7007 40.142 30.1087 39.386C30.5167 38.618 31.0747 38.024 31.7827 37.604C32.5027 37.184 33.3007 36.974 34.1767 36.974C35.0407 36.974 35.7907 37.16 36.4267 37.532C37.0627 37.904 37.5367 38.372 37.8487 38.936V37.136H39.5047V47H37.8487V45.164C37.5247 45.74 37.0387 46.22 36.3907 46.604C35.7547 46.976 35.0107 47.162 34.1587 47.162C33.2827 47.162 32.4907 46.946 31.7827 46.514C31.0747 46.082 30.5167 45.476 30.1087 44.696C29.7007 43.916 29.4967 43.028 29.4967 42.032ZM37.8487 42.05C37.8487 41.306 37.6987 40.658 37.3987 40.106C37.0987 39.554 36.6907 39.134 36.1747 38.846C35.6707 38.546 35.1127 38.396 34.5007 38.396C33.8887 38.396 33.3307 38.54 32.8267 38.828C32.3227 39.116 31.9207 39.536 31.6207 40.088C31.3207 40.64 31.1707 41.288 31.1707 42.032C31.1707 42.788 31.3207 43.448 31.6207 44.012C31.9207 44.564 32.3227 44.99 32.8267 45.29C33.3307 45.578 33.8887 45.722 34.5007 45.722C35.1127 45.722 35.6707 45.578 36.1747 45.29C36.6907 44.99 37.0987 44.564 37.3987 44.012C37.6987 43.448 37.8487 42.794 37.8487 42.05ZM44.2707 38.486V44.3C44.2707 44.78 44.3727 45.122 44.5767 45.326C44.7807 45.518 45.1347 45.614 45.6387 45.614H46.8447V47H45.3687C44.4567 47 43.7727 46.79 43.3167 46.37C42.8607 45.95 42.6327 45.26 42.6327 44.3V38.486H41.3547V37.136H42.6327V34.652H44.2707V37.136H46.8447V38.486H44.2707ZM53.7254 36.956C54.4694 36.956 55.1414 37.118 55.7414 37.442C56.3414 37.754 56.8094 38.228 57.1454 38.864C57.4934 39.5 57.6674 40.274 57.6674 41.186V47H56.0474V41.42C56.0474 40.436 55.8014 39.686 55.3094 39.17C54.8174 38.642 54.1454 38.378 53.2934 38.378C52.4294 38.378 51.7394 38.648 51.2234 39.188C50.7194 39.728 50.4674 40.514 50.4674 41.546V47H48.8294V33.68H50.4674V38.54C50.7914 38.036 51.2354 37.646 51.7994 37.37C52.3754 37.094 53.0174 36.956 53.7254 36.956ZM69.343 41.69C69.343 42.002 69.325 42.332 69.289 42.68H61.405C61.465 43.652 61.795 44.414 62.395 44.966C63.007 45.506 63.745 45.776 64.609 45.776C65.317 45.776 65.905 45.614 66.373 45.29C66.853 44.954 67.189 44.51 67.381 43.958H69.145C68.881 44.906 68.353 45.68 67.561 46.28C66.769 46.868 65.785 47.162 64.609 47.162C63.673 47.162 62.833 46.952 62.089 46.532C61.357 46.112 60.781 45.518 60.361 44.75C59.941 43.97 59.731 43.07 59.731 42.05C59.731 41.03 59.935 40.136 60.343 39.368C60.751 38.6 61.321 38.012 62.053 37.604C62.797 37.184 63.649 36.974 64.609 36.974C65.545 36.974 66.373 37.178 67.093 37.586C67.813 37.994 68.365 38.558 68.749 39.278C69.145 39.986 69.343 40.79 69.343 41.69ZM67.651 41.348C67.651 40.724 67.513 40.19 67.237 39.746C66.961 39.29 66.583 38.948 66.103 38.72C65.635 38.48 65.113 38.36 64.537 38.36C63.709 38.36 63.001 38.624 62.413 39.152C61.837 39.68 61.507 40.412 61.423 41.348H67.651ZM73.1431 38.738C73.4311 38.174 73.8391 37.736 74.3671 37.424C74.9071 37.112 75.5611 36.956 76.3291 36.956V38.648H75.8971C74.0611 38.648 73.1431 39.644 73.1431 41.636V47H71.5051V37.136H73.1431V38.738ZM90.7408 34.454V35.786H87.3208V47H85.6828V35.786H82.2448V34.454H90.7408ZM92.1451 42.032C92.1451 41.024 92.3491 40.142 92.7571 39.386C93.1651 38.618 93.7231 38.024 94.4311 37.604C95.1511 37.184 95.9491 36.974 96.8251 36.974C97.6891 36.974 98.4391 37.16 99.0751 37.532C99.7111 37.904 100.185 38.372 100.497 38.936V37.136H102.153V47H100.497V45.164C100.173 45.74 99.6871 46.22 99.0391 46.604C98.4031 46.976 97.6591 47.162 96.8071 47.162C95.9311 47.162 95.1391 46.946 94.4311 46.514C93.7231 46.082 93.1651 45.476 92.7571 44.696C92.3491 43.916 92.1451 43.028 92.1451 42.032ZM100.497 42.05C100.497 41.306 100.347 40.658 100.047 40.106C99.7471 39.554 99.3391 39.134 98.8231 38.846C98.3191 38.546 97.7611 38.396 97.1491 38.396C96.5371 38.396 95.9791 38.54 95.4751 38.828C94.9711 39.116 94.5691 39.536 94.2691 40.088C93.9691 40.64 93.8191 41.288 93.8191 42.032C93.8191 42.788 93.9691 43.448 94.2691 44.012C94.5691 44.564 94.9711 44.99 95.4751 45.29C95.9791 45.578 96.5371 45.722 97.1491 45.722C97.7611 45.722 98.3191 45.578 98.8231 45.29C99.3391 44.99 99.7471 44.564 100.047 44.012C100.347 43.448 100.497 42.794 100.497 42.05ZM108.413 47.162C107.657 47.162 106.979 47.036 106.379 46.784C105.779 46.52 105.305 46.16 104.957 45.704C104.609 45.236 104.417 44.702 104.381 44.102H106.073C106.121 44.594 106.349 44.996 106.757 45.308C107.177 45.62 107.723 45.776 108.395 45.776C109.019 45.776 109.511 45.638 109.871 45.362C110.231 45.086 110.411 44.738 110.411 44.318C110.411 43.886 110.219 43.568 109.835 43.364C109.451 43.148 108.857 42.938 108.053 42.734C107.321 42.542 106.721 42.35 106.253 42.158C105.797 41.954 105.401 41.66 105.065 41.276C104.741 40.88 104.579 40.364 104.579 39.728C104.579 39.224 104.729 38.762 105.029 38.342C105.329 37.922 105.755 37.592 106.307 37.352C106.859 37.1 107.489 36.974 108.197 36.974C109.289 36.974 110.171 37.25 110.843 37.802C111.515 38.354 111.875 39.11 111.923 40.07H110.285C110.249 39.554 110.039 39.14 109.655 38.828C109.283 38.516 108.779 38.36 108.143 38.36C107.555 38.36 107.087 38.486 106.739 38.738C106.391 38.99 106.217 39.32 106.217 39.728C106.217 40.052 106.319 40.322 106.523 40.538C106.739 40.742 107.003 40.91 107.315 41.042C107.639 41.162 108.083 41.3 108.647 41.456C109.355 41.648 109.931 41.84 110.375 42.032C110.819 42.212 111.197 42.488 111.509 42.86C111.833 43.232 112.001 43.718 112.013 44.318C112.013 44.858 111.863 45.344 111.563 45.776C111.263 46.208 110.837 46.55 110.285 46.802C109.745 47.042 109.121 47.162 108.413 47.162ZM119.833 47L115.963 42.644V47H114.325V33.68H115.963V41.51L119.761 37.136H122.047L117.403 42.05L122.065 47H119.833Z" fill="#3A3A3A"/>
</svg>
