<svg width="68" height="68" viewBox="0 0 68 68" fill="none" xmlns="http://www.w3.org/2000/svg">
<path d="M12.7533 42.5C5.71426 42.5 0.00332666 36.7891 0.00332666 29.75C0.00332666 24.1055 3.66895 19.3109 8.75567 17.6375C8.5963 16.7477 8.50333 15.818 8.50333 14.875C8.50333 6.65391 15.1572 0 23.3783 0C29.1025 0 34.0697 3.22734 36.5533 7.96875C38.5057 5.69766 41.401 4.25 44.6283 4.25C50.4986 4.25 55.2533 9.00469 55.2533 14.875C55.2533 15.6055 55.1736 16.3094 55.0408 17C55.1072 17 55.1869 17 55.2533 17C62.2924 17 68.0033 22.7109 68.0033 29.75C68.0033 36.7891 62.2924 42.5 55.2533 42.5H12.7533ZM10.8275 47.0023C12.4479 47.693 13.1916 49.5656 12.501 51.1859L6.12598 66.0609C5.43536 67.6812 3.5627 68.425 1.94239 67.7344C0.322077 67.0437 -0.434955 65.1711 0.25567 63.5508L6.63067 48.6758C7.3213 47.0555 9.19395 46.3117 10.8143 47.0023H10.8275ZM26.765 47.0023C28.3854 47.693 29.1291 49.5656 28.4385 51.1859L22.0635 66.0609C21.3729 67.6812 19.5002 68.425 17.8799 67.7344C16.2596 67.0437 15.5158 65.1711 16.2065 63.5508L22.5815 48.6758C23.2721 47.0555 25.1447 46.3117 26.765 47.0023ZM59.251 51.1859L52.876 66.0609C52.1854 67.6812 50.3127 68.425 48.6924 67.7344C47.0721 67.0437 46.3283 65.1711 47.019 63.5508L53.394 48.6758C54.0846 47.0555 55.9572 46.3117 57.5775 47.0023C59.1979 47.693 59.9416 49.5656 59.251 51.1859ZM41.64 47.0023C43.2604 47.693 44.0041 49.5656 43.3135 51.1859L36.9385 66.0609C36.2479 67.6812 34.3752 68.425 32.7549 67.7344C31.1346 67.0437 30.3908 65.1711 31.0815 63.5508L37.4565 48.6758C38.1471 47.0555 40.0197 46.3117 41.64 47.0023Z" fill="white"/>
</svg>
