<svg width="60" height="68" viewBox="0 0 60 68" fill="none" xmlns="http://www.w3.org/2000/svg">
<path d="M29.5835 0C31.3533 0 32.7772 1.42109 32.7772 3.1875V9.31016L35.8379 6.25547C37.0887 5.00703 39.1114 5.00703 40.349 6.25547C41.5866 7.50391 41.5999 9.52266 40.349 10.7578L32.7639 18.3281V28.4883L41.5733 23.4148L44.3545 13.082C44.8069 11.382 46.5635 10.3727 48.2668 10.8242C49.9702 11.2758 50.9815 13.0289 50.5291 14.7289L49.4112 18.8859L54.3482 16.0438C55.8786 15.1672 57.8347 15.6852 58.713 17.2125C59.5913 18.7398 59.0723 20.6922 57.542 21.5687L52.605 24.4109L56.7968 25.5266C58.5001 25.9781 59.5114 27.7313 59.059 29.4313C58.6066 31.1313 56.85 32.1406 55.1467 31.6891L44.7936 28.9133L35.9709 34L44.7803 39.0734L55.1334 36.2977C56.8367 35.8461 58.5932 36.8555 59.0457 38.5555C59.4981 40.2555 58.4868 42.0086 56.7835 42.4602L52.605 43.5891L57.542 46.4313C59.0723 47.3078 59.5913 49.2602 58.713 50.7875C57.8347 52.3148 55.8786 52.8328 54.3482 51.9563L49.4112 49.1141L50.5291 53.2977C50.9815 54.9977 49.9702 56.7508 48.2668 57.2023C46.5635 57.6539 44.8069 56.6445 44.3545 54.9445L41.5733 44.6117L32.7772 39.525V49.6852L40.3623 57.2555C41.6132 58.5039 41.6132 60.5227 40.3623 61.7578C39.1114 62.993 37.0887 63.0062 35.8512 61.7578L32.7905 58.7031V64.8125C32.7905 66.5789 31.3666 68 29.5968 68C27.8269 68 26.403 66.5789 26.403 64.8125V58.6898L23.3424 61.7445C22.0915 62.993 20.0688 62.993 18.8312 61.7445C17.5936 60.4961 17.5803 58.4773 18.8312 57.2422L26.4163 49.6719V39.525L17.6069 44.5984L14.8257 54.9313C14.3733 56.6313 12.6167 57.6406 10.9134 57.1891C9.21008 56.7375 8.19873 54.9844 8.65117 53.2844L9.75567 49.1141L4.81869 51.9563C3.28835 52.8328 1.33219 52.3148 0.453912 50.7875C-0.424366 49.2602 0.0946167 47.3078 1.62495 46.4313L6.56194 43.5891L2.37016 42.4734C0.666828 42.0219 -0.344522 40.2687 0.107924 38.5687C0.56037 36.8687 2.31693 35.8594 4.02025 36.3109L14.3733 39.0867L23.196 34L14.3866 28.9266L4.02025 31.6891C2.31693 32.1406 0.56037 31.1313 0.107924 29.4313C-0.344522 27.7313 0.666828 25.9781 2.37016 25.5266L6.56194 24.4109L1.62495 21.5687C0.0946167 20.6922 -0.424366 18.7398 0.453912 17.2125C1.33219 15.6852 3.28835 15.1672 4.81869 16.0438L9.75567 18.8859L8.63787 14.7023C8.18542 13.0023 9.19677 11.2492 10.9001 10.7977C12.6034 10.3461 14.36 11.3555 14.8124 13.0555L17.5936 23.3883L26.3897 28.475V18.3148L18.8046 10.7578C17.5537 9.50938 17.5537 7.49062 18.8046 6.25547C20.0555 5.02031 22.0782 5.00703 23.3158 6.25547L26.3764 9.31016V3.1875C26.3764 1.42109 27.8003 0 29.5702 0H29.5835Z" fill="white"/>
</svg>
