<svg width="86" height="68" viewBox="0 0 86 68" fill="none" xmlns="http://www.w3.org/2000/svg">
<path d="M39.0746 0.160546C39.752 0.439452 40.2301 1.05039 40.3496 1.76758L42.2223 13.0168L53.4715 14.8895C54.1887 15.009 54.7996 15.4871 55.0785 16.1645C55.3574 16.8418 55.2777 17.6121 54.866 18.2098L49.7527 25.5145C49.4605 25.5012 49.1684 25.4879 48.8629 25.4879C45.7684 25.4879 42.873 26.3113 40.3629 27.759V27.6129C40.3629 20.5738 34.652 14.8629 27.6129 14.8629C20.5738 14.8629 14.8629 20.5738 14.8629 27.6129C14.8629 34.652 20.5738 40.3629 27.6129 40.3629C28.6887 40.3629 29.7246 40.2301 30.7207 39.9777C25.8598 42.3816 22.3137 47.0301 21.4504 52.5816L18.2098 54.8395C17.6121 55.2512 16.8418 55.3441 16.1645 55.052C15.4871 54.7598 15.009 54.1621 14.8895 53.4449L13.0301 42.2223L1.78086 40.3496C1.06367 40.2301 0.452734 39.752 0.173827 39.0746C-0.105079 38.3973 -0.0253914 37.6269 0.386327 37.0293L6.97383 27.6262L0.386327 18.223C-0.0386727 17.6254 -0.11836 16.8551 0.173827 16.1777C0.466015 15.5004 1.06367 15.0223 1.78086 14.9027L13.0301 13.0301L14.9027 1.78086C15.0223 1.06367 15.5004 0.452734 16.1777 0.173827C16.8551 -0.105079 17.6254 -0.0253914 18.223 0.386327L27.6262 6.97383L37.0293 0.386327C37.6269 -0.0386727 38.3973 -0.11836 39.0746 0.173827V0.160546ZM19.1262 27.6262C19.1262 25.3718 20.0217 23.2098 21.6158 21.6158C23.2098 20.0217 25.3718 19.1262 27.6262 19.1262C29.8805 19.1262 32.0425 20.0217 33.6366 21.6158C35.2306 23.2098 36.1262 25.3718 36.1262 27.6262C36.1262 29.8805 35.2306 32.0425 33.6366 33.6366C32.0425 35.2306 29.8805 36.1262 27.6262 36.1262C25.3718 36.1262 23.2098 35.2306 21.6158 33.6366C20.0217 32.0425 19.1262 29.8805 19.1262 27.6262Z" fill="#FE9209"/>
<path d="M85.4867 56.6117C85.4867 62.482 80.732 67.2367 74.8617 67.2367H38.75C31.7109 67.2367 26 61.5258 26 54.4867C26 48.1648 30.5953 42.932 36.625 41.9227V41.75C36.625 34.7109 42.3359 29 49.375 29C54.0102 29 58.0609 31.4703 60.2922 35.1625C62.0188 33.9539 64.1172 33.25 66.375 33.25C72.2453 33.25 77 38.0047 77 43.875C77 44.6586 76.9203 45.4289 76.7477 46.1594C81.7148 47.0492 85.4867 51.3922 85.4867 56.6117Z" fill="white"/>
</svg>
