<svg width="59" height="59" viewBox="0 0 59 59" fill="none" xmlns="http://www.w3.org/2000/svg">
<path d="M41.6555 0.142527C42.2316 0.384484 42.6463 0.902964 42.7616 1.51362L45.0544 13.9456L57.4864 16.2269C58.097 16.3421 58.6155 16.7569 58.8575 17.333C59.0994 17.9091 59.0303 18.5658 58.6731 19.0843L51.4951 29.5L58.6731 39.9042C59.0303 40.4226 59.0994 41.0794 58.8575 41.6555C58.6155 42.2316 58.097 42.6463 57.4864 42.7616L45.0544 45.0544L42.7616 57.4864C42.6463 58.097 42.2316 58.6155 41.6555 58.8575C41.0794 59.0994 40.4226 59.0303 39.9042 58.6731L29.5 51.4951L19.0958 58.6731C18.5774 59.0303 17.9206 59.0994 17.3445 58.8575C16.7684 58.6155 16.3537 58.097 16.2384 57.4864L13.9456 45.0544L1.51362 42.7616C0.902964 42.6463 0.384484 42.2316 0.142527 41.6555C-0.0994301 41.0794 -0.0302995 40.4226 0.326875 39.9042L7.50494 29.5L0.326875 19.0958C-0.0302995 18.5774 -0.0994301 17.9206 0.142527 17.3445C0.384484 16.7684 0.902964 16.3537 1.51362 16.2384L13.9456 13.9456L16.2384 1.51362C16.3537 0.902964 16.7684 0.384484 17.3445 0.142527C17.9206 -0.0994301 18.5774 -0.0302995 19.0958 0.326875L29.5 7.50494L39.9042 0.326875C40.4226 -0.0302995 41.0794 -0.0994301 41.6555 0.142527ZM18.4391 29.5C18.4391 26.5665 19.6044 23.7531 21.6788 21.6788C23.7531 19.6044 26.5665 18.4391 29.5 18.4391C32.4335 18.4391 35.2469 19.6044 37.3212 21.6788C39.3956 23.7531 40.5609 26.5665 40.5609 29.5C40.5609 32.4335 39.3956 35.2469 37.3212 37.3212C35.2469 39.3956 32.4335 40.5609 29.5 40.5609C26.5665 40.5609 23.7531 39.3956 21.6788 37.3212C19.6044 35.2469 18.4391 32.4335 18.4391 29.5ZM44.2479 29.5C44.2479 25.5886 42.6941 21.8374 39.9283 19.0717C37.1626 16.3059 33.4114 14.7521 29.5 14.7521C25.5886 14.7521 21.8374 16.3059 19.0717 19.0717C16.3059 21.8374 14.7521 25.5886 14.7521 29.5C14.7521 33.4114 16.3059 37.1626 19.0717 39.9283C21.8374 42.6941 25.5886 44.2479 29.5 44.2479C33.4114 44.2479 37.1626 42.6941 39.9283 39.9283C42.6941 37.1626 44.2479 33.4114 44.2479 29.5Z" fill="#FE9209"/>
</svg>
